# xmcd CD database file
# Copyright (C) 1993-1998 Ti Kan
#
# Track frame offsets:
# 150
# 11617
# 24962
# 38795
# 50957
# 63335
# 75230
# 87787
# 101572
# 114120
# 128760
# 143312
# 158340
# 172475
# 186942
# 201172
# 212465
# 226120
# 239352
# 253822
# 268997
# 283682
# 297655
#
# Disc length: 4136 seconds
# Revision: 0
# Processed by: cddbd v1.4b41PL1 Copyright (c) Steve Scherf et al.
# Submitted via: CDSpectrumPro v3.3.331
#
DISCID=3e102617
DTITLE=Ma Rainey - Ma Rainey - The Complete 1928 Seesions In Chronological Ord
DTITLE=er
DYEAR=1900
DGENRE=
TTITLE0=Black Cat Hoot Owl Blues
TTITLE1=Log Camp Blues
TTITLE2=Hear Me Talking To You
TTITLE3=Hustlin' Blues
TTITLE4=Prove It On Me Blues
TTITLE5=Victim Of The Blues
TTITLE6=Traveling Blues
TTITLE7=Deep Moaning Blues (Take One)
TTITLE8=Deep Moaning Blues (Take Two)
TTITLE9=Daddy Goodbye Blues
TTITLE10=Sleep Talking Blues (Take 1)
TTITLE11=Sleep Talking Blues (Take 2)
TTITLE12=Tough Luck Blues
TTITLE13=Blame It On The Blues
TTITLE14=Sweet Rough Man
TTITLE15=Runaway Blues
TTITLE16=Screech Owl Blues
TTITLE17=Black Dust Blues
TTITLE18=Leaving This Morning
TTITLE19=Black Eye Blues (Take 1)
TTITLE20=Black Eye Blues (Take 2)
TTITLE21=Ma And Pa Poorhouse Blues (Duet with Papa Charlie Jackson)
TTITLE22=Big Feeling Blues (Duet with Papa Charlie Jackson)
EXTD=
EXTT0=
EXTT1=
EXTT2=
EXTT3=
EXTT4=
EXTT5=
EXTT6=
EXTT7=
EXTT8=
EXTT9=
EXTT10=
EXTT11=
EXTT12=
EXTT13=
EXTT14=
EXTT15=
EXTT16=
EXTT17=
EXTT18=
EXTT19=
EXTT20=
EXTT21=
EXTT22=
PLAYORDER=
